<svg data-v-423bf9ae="" xmlns="http://www.w3.org/2000/svg" viewBox="0 0 607.5107900697398 60" class="font"><!----><!----><!----><g data-v-423bf9ae="" id="7338b4c6-8af2-403a-95a3-c7f9b486de3d" fill="white" transform="matrix(4.316546584895844,0,0,4.316546584895844,-2.071939204483442,2.5899279346427058)"><path d="M4.06 5.94L4.06 5.94L4.06 5.94Q2.23 5.68 1.39 4.97L1.39 4.97L1.39 4.97Q0.56 4.26 0.56 2.80L0.56 2.80L0.56 2.65L0.56 2.65Q0.56 1.15 1.56 0.27L1.56 0.27L1.56 0.27Q2.56-0.60 4.41-0.60L4.41-0.60L4.41-0.60Q6.41-0.60 7.34 0.31L7.34 0.31L7.34 0.31Q8.27 1.22 8.27 3.15L8.27 3.15L8.27 3.44L6.01 3.44L6.01 3.44Q6.01 2.35 5.64 1.86L5.64 1.86L5.64 1.86Q5.28 1.36 4.42 1.36L4.42 1.36L4.30 1.36L4.30 1.36Q3.63 1.36 3.24 1.69L3.24 1.69L3.24 1.69Q2.86 2.03 2.86 2.56L2.86 2.56L2.86 2.63L2.86 2.63Q2.86 3.28 3.24 3.59L3.24 3.59L3.24 3.59Q3.63 3.91 4.77 4.06L4.77 4.06L4.77 4.06Q6.62 4.31 7.49 5.03L7.49 5.03L7.49 5.03Q8.36 5.75 8.36 7.22L8.36 7.22L8.36 7.36L8.36 7.36Q8.36 8.95 7.34 9.81L7.34 9.81L7.34 9.81Q6.31 10.68 4.41 10.68L4.41 10.68L4.41 10.68Q2.45 10.68 1.46 9.77L1.46 9.77L1.46 9.77Q0.48 8.85 0.48 6.90L0.48 6.90L0.48 6.78L2.74 6.78L2.74 6.78Q2.74 8.72 4.35 8.72L4.35 8.72L4.48 8.72L4.48 8.72Q5.24 8.72 5.64 8.37L5.64 8.37L5.64 8.37Q6.05 8.01 6.05 7.43L6.05 7.43L6.05 7.36L6.05 7.36Q6.05 6.75 5.62 6.42L5.62 6.42L5.62 6.42Q5.19 6.09 4.06 5.94ZM13.69 10.68L13.69 10.68L13.69 10.68Q12.49 10.68 11.79 9.87L11.79 9.87L11.79 13.30L9.58 13.30L9.58 5.18L9.45 3.08L11.42 3.08L11.58 3.99L11.58 3.99Q12.31 2.90 13.69 2.90L13.69 2.90L13.69 2.90Q16.45 2.90 16.45 6.54L16.45 6.54L16.45 7.04L16.45 7.04Q16.45 10.68 13.69 10.68ZM13.05 4.80L13.05 4.80L13.05 4.80Q12.26 4.80 11.79 5.50L11.79 5.50L11.79 8.08L11.79 8.08Q12.26 8.78 13.05 8.78L13.05 8.78L13.05 8.78Q14.24 8.78 14.24 7.04L14.24 7.04L14.24 6.54L14.24 6.54Q14.24 4.80 13.05 4.80ZM24.01 10.50L22.02 10.50L21.88 9.73L21.88 9.73Q21.00 10.68 19.56 10.68L19.56 10.68L19.56 10.68Q18.38 10.68 17.84 10.06L17.84 10.06L17.84 10.06Q17.29 9.44 17.29 8.46L17.29 8.46L17.29 8.32L17.29 8.32Q17.29 7.20 17.97 6.66L17.97 6.66L17.97 6.66Q18.65 6.13 19.95 5.94L19.95 5.94L21.66 5.67L21.66 5.67Q21.64 5.10 21.42 4.84L21.42 4.84L21.42 4.84Q21.20 4.58 20.65 4.58L20.65 4.58L20.65 4.58Q19.66 4.58 19.66 5.53L19.66 5.53L17.57 5.53L17.57 5.40L17.57 5.40Q17.57 4.30 18.30 3.60L18.30 3.60L18.30 3.60Q19.03 2.90 20.72 2.90L20.72 2.90L20.72 2.90Q22.46 2.90 23.16 3.60L23.16 3.60L23.16 3.60Q23.87 4.30 23.87 5.73L23.87 5.73L23.87 8.40L24.01 10.50ZM20.37 8.89L20.37 8.89L20.37 8.89Q21.13 8.89 21.66 8.33L21.66 8.33L21.66 6.97L20.40 7.17L20.40 7.17Q19.49 7.32 19.49 8.05L19.49 8.05L19.49 8.13L19.49 8.13Q19.49 8.46 19.70 8.67L19.70 8.67L19.70 8.67Q19.92 8.89 20.37 8.89ZM27.19 6.54L27.19 7.04L27.19 7.04Q27.19 8.78 28.38 8.78L28.38 8.78L28.38 8.78Q28.90 8.78 29.17 8.50L29.17 8.50L29.17 8.50Q29.44 8.22 29.44 7.76L29.44 7.76L31.53 7.76L31.53 8.06L31.53 8.06Q31.53 9.25 30.71 9.97L30.71 9.97L30.71 9.97Q29.89 10.68 28.34 10.68L28.34 10.68L28.34 10.68Q26.64 10.68 25.81 9.70L25.81 9.70L25.81 9.70Q24.98 8.72 24.98 7.04L24.98 7.04L24.98 6.54L24.98 6.54Q24.98 4.86 25.81 3.88L25.81 3.88L25.81 3.88Q26.64 2.90 28.34 2.90L28.34 2.90L28.34 2.90Q29.89 2.90 30.71 3.64L30.71 3.64L30.71 3.64Q31.53 4.38 31.53 5.64L31.53 5.64L31.53 5.96L29.44 5.96L29.44 5.96Q29.44 4.80 28.38 4.80L28.38 4.80L28.38 4.80Q27.19 4.80 27.19 6.54L27.19 6.54ZM39.30 6.59L39.30 7.59L34.57 7.59L34.57 7.59Q34.62 8.34 34.97 8.67L34.97 8.67L34.97 8.67Q35.32 9.00 35.97 9.00L35.97 9.00L35.97 9.00Q36.53 9.00 36.87 8.74L36.87 8.74L36.87 8.74Q37.21 8.47 37.21 8.12L37.21 8.12L39.30 8.12L39.30 8.18L39.30 8.18Q39.30 9.27 38.41 9.97L38.41 9.97L38.41 9.97Q37.52 10.68 35.95 10.68L35.95 10.68L35.95 10.68Q34.17 10.68 33.26 9.67L33.26 9.67L33.26 9.67Q32.35 8.67 32.35 6.99L32.35 6.99L32.35 6.59L32.35 6.59Q32.35 4.93 33.26 3.91L33.26 3.91L33.26 3.91Q34.17 2.90 35.87 2.90L35.87 2.90L35.87 2.90Q37.56 2.90 38.43 3.91L38.43 3.91L38.43 3.91Q39.30 4.91 39.30 6.59L39.30 6.59ZM37.07 5.99L37.07 5.99Q36.97 4.58 35.83 4.58L35.83 4.58L35.83 4.58Q34.68 4.58 34.58 5.99L34.58 5.99L37.07 5.99ZM42.56 4.76L42.56 5.32L42.56 5.32Q42.56 7.07 42.94 7.90L42.94 7.90L42.94 7.90Q43.33 8.72 44.37 8.72L44.37 8.72L44.49 8.72L44.49 8.72Q46.00 8.72 46.00 6.78L46.00 6.78L48.27 6.78L48.27 6.90L48.27 6.90Q48.27 8.89 47.31 9.79L47.31 9.79L47.31 9.79Q46.34 10.68 44.37 10.68L44.37 10.68L44.37 10.68Q42.22 10.68 41.24 9.41L41.24 9.41L41.24 9.41Q40.26 8.15 40.26 5.32L40.26 5.32L40.26 4.76L40.26 4.76Q40.26 1.93 41.24 0.66L41.24 0.66L41.24 0.66Q42.22-0.60 44.37-0.60L44.37-0.60L44.37-0.60Q46.35-0.60 47.31 0.30L47.31 0.30L47.31 0.30Q48.27 1.20 48.27 3.22L48.27 3.22L48.27 3.72L46.00 3.72L46.00 3.72Q46.00 2.52 45.67 1.94L45.67 1.94L45.67 1.94Q45.35 1.36 44.49 1.36L44.49 1.36L44.37 1.36L44.37 1.36Q43.33 1.36 42.94 2.18L42.94 2.18L42.94 2.18Q42.56 3.01 42.56 4.76L42.56 4.76ZM51.79 10.50L49.57 10.50L49.57 3.08L51.79 3.08L51.79 10.50ZM49.52-0.31L51.84-0.31L51.84 2.03L49.52 2.03L49.52-0.31ZM56.15 0.98L56.15 3.08L58.06 3.08L58.06 5.01L56.15 5.01L56.15 7.69L56.15 7.69Q56.15 8.33 56.42 8.55L56.42 8.55L56.42 8.55Q56.69 8.78 57.25 8.78L57.25 8.78L57.25 8.78Q57.72 8.78 57.92 8.68L57.92 8.68L57.92 10.50L57.92 10.50Q57.60 10.68 56.73 10.68L56.73 10.68L56.73 10.68Q53.94 10.68 53.94 7.92L53.94 7.92L53.94 5.01L52.81 5.01L52.81 3.08L53.94 3.08L53.94 0.98L56.15 0.98ZM61.05 3.08L62.45 7.81L63.85 3.08L66.26 3.08L63.64 10.11L62.69 13.30L60.06 13.30L61.25 10.11L58.65 3.08L61.05 3.08ZM73.15 5.94L73.15 5.94L73.15 5.94Q71.32 5.68 70.48 4.97L70.48 4.97L70.48 4.97Q69.65 4.26 69.65 2.80L69.65 2.80L69.65 2.65L69.65 2.65Q69.65 1.15 70.65 0.27L70.65 0.27L70.65 0.27Q71.65-0.60 73.50-0.60L73.50-0.60L73.50-0.60Q75.50-0.60 76.43 0.31L76.43 0.31L76.43 0.31Q77.36 1.22 77.36 3.15L77.36 3.15L77.36 3.44L75.10 3.44L75.10 3.44Q75.10 2.35 74.73 1.86L74.73 1.86L74.73 1.86Q74.37 1.36 73.51 1.36L73.51 1.36L73.39 1.36L73.39 1.36Q72.72 1.36 72.33 1.69L72.33 1.69L72.33 1.69Q71.95 2.03 71.95 2.56L71.95 2.56L71.95 2.63L71.95 2.63Q71.95 3.28 72.33 3.59L72.33 3.59L72.33 3.59Q72.72 3.91 73.86 4.06L73.86 4.06L73.86 4.06Q75.71 4.31 76.58 5.03L76.58 5.03L76.58 5.03Q77.45 5.75 77.45 7.22L77.45 7.22L77.45 7.36L77.45 7.36Q77.45 8.95 76.43 9.81L76.43 9.81L76.43 9.81Q75.40 10.68 73.50 10.68L73.50 10.68L73.50 10.68Q71.54 10.68 70.55 9.77L70.55 9.77L70.55 9.77Q69.57 8.85 69.57 6.90L69.57 6.90L69.57 6.78L71.83 6.78L71.83 6.78Q71.83 8.72 73.44 8.72L73.44 8.72L73.57 8.72L73.57 8.72Q74.33 8.72 74.73 8.37L74.73 8.37L74.73 8.37Q75.14 8.01 75.14 7.43L75.14 7.43L75.14 7.36L75.14 7.36Q75.14 6.75 74.71 6.42L74.71 6.42L74.71 6.42Q74.28 6.09 73.15 5.94ZM81.54 0.98L81.54 3.08L83.44 3.08L83.44 5.01L81.54 5.01L81.54 7.69L81.54 7.69Q81.54 8.33 81.80 8.55L81.80 8.55L81.80 8.55Q82.07 8.78 82.63 8.78L82.63 8.78L82.63 8.78Q83.10 8.78 83.30 8.68L83.30 8.68L83.30 10.50L83.30 10.50Q82.98 10.68 82.11 10.68L82.11 10.68L82.11 10.68Q79.32 10.68 79.32 7.92L79.32 7.92L79.32 5.01L78.19 5.01L78.19 3.08L79.32 3.08L79.32 0.98L81.54 0.98ZM91.10 10.50L89.11 10.50L88.97 9.73L88.97 9.73Q88.09 10.68 86.65 10.68L86.65 10.68L86.65 10.68Q85.47 10.68 84.92 10.06L84.92 10.06L84.92 10.06Q84.38 9.44 84.38 8.46L84.38 8.46L84.38 8.32L84.38 8.32Q84.38 7.20 85.06 6.66L85.06 6.66L85.06 6.66Q85.74 6.13 87.04 5.94L87.04 5.94L88.75 5.67L88.75 5.67Q88.73 5.10 88.51 4.84L88.51 4.84L88.51 4.84Q88.28 4.58 87.74 4.58L87.74 4.58L87.74 4.58Q86.74 4.58 86.74 5.53L86.74 5.53L84.66 5.53L84.66 5.40L84.66 5.40Q84.66 4.30 85.39 3.60L85.39 3.60L85.39 3.60Q86.11 2.90 87.81 2.90L87.81 2.90L87.81 2.90Q89.54 2.90 90.25 3.60L90.25 3.60L90.25 3.60Q90.96 4.30 90.96 5.73L90.96 5.73L90.96 8.40L91.10 10.50ZM87.46 8.89L87.46 8.89L87.46 8.89Q88.21 8.89 88.75 8.33L88.75 8.33L88.75 6.97L87.49 7.17L87.49 7.17Q86.58 7.32 86.58 8.05L86.58 8.05L86.58 8.13L86.58 8.13Q86.58 8.46 86.79 8.67L86.79 8.67L86.79 8.67Q87.01 8.89 87.46 8.89ZM96.38 2.90L96.38 2.90L96.38 2.90Q96.53 2.90 96.59 2.91L96.59 2.91L96.59 5.04L96.21 5.04L96.21 5.04Q95.06 5.04 94.61 5.68L94.61 5.68L94.61 10.50L92.40 10.50L92.40 5.18L92.27 3.08L94.25 3.08L94.40 3.95L94.40 3.95Q95.14 2.90 96.38 2.90ZM101.91 10.68L101.91 10.68L101.91 10.68Q99.67 10.68 98.62 9.41L98.62 9.41L98.62 9.41Q97.58 8.13 97.58 5.32L97.58 5.32L97.58 4.76L97.58 4.76Q97.58 1.96 98.60 0.68L98.60 0.68L98.60 0.68Q99.62-0.60 101.77-0.60L101.77-0.60L101.77-0.60Q103.77-0.60 104.76 0.31L104.76 0.31L104.76 0.31Q105.74 1.22 105.74 3.22L105.74 3.22L105.74 3.72L103.47 3.72L103.47 3.72Q103.47 2.52 103.13 1.94L103.13 1.94L103.13 1.94Q102.79 1.36 101.89 1.36L101.89 1.36L101.77 1.36L101.77 1.36Q100.70 1.36 100.30 2.18L100.30 2.18L100.30 2.18Q99.89 3.01 99.89 4.76L99.89 4.76L99.89 5.32L99.89 5.32Q99.89 7.08 100.30 7.90L100.30 7.90L100.30 7.90Q100.72 8.72 101.85 8.72L101.85 8.72L101.98 8.72L101.98 8.72Q102.87 8.72 103.46 8.30L103.46 8.30L103.46 6.55L102.02 6.55L102.02 4.59L105.73 4.59L105.73 9.41L105.73 9.41Q104.19 10.68 101.91 10.68ZM113.60 10.50L111.61 10.50L111.47 9.73L111.47 9.73Q110.59 10.68 109.14 10.68L109.14 10.68L109.14 10.68Q107.97 10.68 107.42 10.06L107.42 10.06L107.42 10.06Q106.88 9.44 106.88 8.46L106.88 8.46L106.88 8.32L106.88 8.32Q106.88 7.20 107.56 6.66L107.56 6.66L107.56 6.66Q108.23 6.13 109.54 5.94L109.54 5.94L111.24 5.67L111.24 5.67Q111.23 5.10 111.01 4.84L111.01 4.84L111.01 4.84Q110.78 4.58 110.24 4.58L110.24 4.58L110.24 4.58Q109.24 4.58 109.24 5.53L109.24 5.53L107.16 5.53L107.16 5.40L107.16 5.40Q107.16 4.30 107.88 3.60L107.88 3.60L107.88 3.60Q108.61 2.90 110.31 2.90L110.31 2.90L110.31 2.90Q112.04 2.90 112.75 3.60L112.75 3.60L112.75 3.60Q113.46 4.30 113.46 5.73L113.46 5.73L113.46 8.40L113.60 10.50ZM109.96 8.89L109.96 8.89L109.96 8.89Q110.71 8.89 111.24 8.33L111.24 8.33L111.24 6.97L109.98 7.17L109.98 7.17Q109.07 7.32 109.07 8.05L109.07 8.05L109.07 8.13L109.07 8.13Q109.07 8.46 109.29 8.67L109.29 8.67L109.29 8.67Q109.51 8.89 109.96 8.89ZM114.48 10.50L114.48 8.99L117.75 4.97L116.21 5.01L114.62 5.01L114.62 3.08L120.65 3.08L120.65 4.59L117.38 8.61L118.92 8.57L120.79 8.57L120.79 10.50L114.48 10.50ZM128.49 6.59L128.49 7.59L123.76 7.59L123.76 7.59Q123.82 8.34 124.17 8.67L124.17 8.67L124.17 8.67Q124.52 9.00 125.16 9.00L125.16 9.00L125.16 9.00Q125.72 9.00 126.06 8.74L126.06 8.74L126.06 8.74Q126.41 8.47 126.41 8.12L126.41 8.12L128.49 8.12L128.49 8.18L128.49 8.18Q128.49 9.27 127.60 9.97L127.60 9.97L127.60 9.97Q126.71 10.68 125.15 10.68L125.15 10.68L125.15 10.68Q123.37 10.68 122.46 9.67L122.46 9.67L122.46 9.67Q121.55 8.67 121.55 6.99L121.55 6.99L121.55 6.59L121.55 6.59Q121.55 4.93 122.46 3.91L122.46 3.91L122.46 3.91Q123.37 2.90 125.06 2.90L125.06 2.90L125.06 2.90Q126.76 2.90 127.62 3.91L127.62 3.91L127.62 3.91Q128.49 4.91 128.49 6.59L128.49 6.59ZM126.27 5.99L126.27 5.99Q126.17 4.58 125.02 4.58L125.02 4.58L125.02 4.58Q123.87 4.58 123.77 5.99L123.77 5.99L126.27 5.99ZM133.64 2.90L133.64 2.90L133.64 2.90Q133.80 2.90 133.85 2.91L133.85 2.91L133.85 5.04L133.48 5.04L133.48 5.04Q132.33 5.04 131.88 5.68L131.88 5.68L131.88 10.50L129.67 10.50L129.67 5.18L129.54 3.08L131.52 3.08L131.67 3.95L131.67 3.95Q132.41 2.90 133.64 2.90ZM138.00 9.00L138.00 9.00L138.00 9.00Q138.99 9.00 138.99 8.27L138.99 8.27L138.99 8.27Q138.99 7.92 138.75 7.76L138.75 7.76L138.75 7.76Q138.52 7.59 137.89 7.53L137.89 7.53L137.89 7.53Q136.28 7.41 135.58 6.94L135.58 6.94L135.58 6.94Q134.88 6.47 134.88 5.45L134.88 5.45L134.88 5.32L134.88 5.32Q134.88 4.10 135.73 3.50L135.73 3.50L135.73 3.50Q136.58 2.90 138.00 2.90L138.00 2.90L138.00 2.90Q141.12 2.90 141.12 5.45L141.12 5.45L141.12 5.52L138.95 5.52L138.95 5.52Q138.95 4.58 138.00 4.58L138.00 4.58L138.00 4.58Q137.55 4.58 137.31 4.76L137.31 4.76L137.31 4.76Q137.06 4.94 137.06 5.25L137.06 5.25L137.06 5.25Q137.06 5.60 137.28 5.75L137.28 5.75L137.28 5.75Q137.51 5.91 138.12 5.96L138.12 5.96L138.12 5.96Q139.69 6.09 140.45 6.53L140.45 6.53L140.45 6.53Q141.22 6.97 141.22 8.06L141.22 8.06L141.22 8.19L141.22 8.19Q141.22 9.37 140.40 10.02L140.40 10.02L140.40 10.02Q139.58 10.68 138.00 10.68L138.00 10.68L138.00 10.68Q136.42 10.68 135.60 10.01L135.60 10.01L135.60 10.01Q134.79 9.34 134.79 8.22L134.79 8.22L134.79 8.15L136.99 8.15L136.99 8.15Q136.99 9.00 138.00 9.00Z"></path></g><!----><!----></svg>